<mxfile host="app.diagrams.net" modified="2023-12-16T00:50:08.606Z" agent="Mozilla/5.0 (Macintosh; Intel Mac OS X 10_15_7) AppleWebKit/537.36 (KHTML, like Gecko) Chrome/116.0.0.0 Safari/537.36" version="22.1.11" etag="3H6Mb1_vA5vIaFQIAT9L" type="github">
  <diagram name="페이지-1" id="Skzki0NyqhreqoYcY0Cw">
    <mxGraphModel>
      <root>
        <mxCell id="0" />
        <mxCell id="1" parent="0" />
      </root>
    </mxGraphModel>
  </diagram>
</mxfile>
